<svg width="86" height="26" viewBox="0 0 86 26" fill="none" xmlns="http://www.w3.org/2000/svg">
<path d="M2.70006 0.359993L0.0600586 8.99999H1.74006L3.90006 1.89599L6.09606 8.99999H7.77606L5.13606 0.359993H2.70006Z" fill="black"/>
<path d="M18.3999 8.99999V0.359993H14.7519C14.5839 0.359993 14.2599 0.371992 14.0319 0.407993C12.4839 0.647992 11.7999 1.76399 11.7999 3.21599C11.7999 4.39199 12.2559 5.34599 13.2399 5.79599L11.6799 8.99999H13.5279L14.9499 6.07199H16.7679V8.99999H18.3999ZM13.4439 3.21599C13.4439 2.74799 13.6119 2.12399 14.2719 1.94399C14.4399 1.89599 14.6559 1.88399 14.8239 1.88399H16.7679V4.54799H14.8239C14.6559 4.54799 14.4399 4.53599 14.2719 4.48799C13.6119 4.30799 13.4439 3.68399 13.4439 3.21599Z" fill="black"/>
<path d="M27.147 9.17999C29.127 9.17999 30.519 8.12399 31.071 6.44399L29.427 5.98799C29.103 7.03199 28.347 7.64399 27.147 7.64399C25.503 7.64399 24.675 6.47999 24.675 4.67999C24.675 2.87999 25.503 1.71599 27.147 1.71599C28.347 1.71599 29.103 2.32799 29.427 3.37199L31.071 2.91599C30.519 1.23599 29.127 0.179993 27.147 0.179993C24.555 0.179993 22.959 1.99199 22.959 4.67999C22.959 7.36799 24.555 9.17999 27.147 9.17999Z" fill="black"/>
<path d="M37.7561 8.99999H39.3881V1.88399H42.1121V0.359993H35.0321V1.88399H37.7561V8.99999Z" fill="black"/>
<path d="M46.5563 8.99999H48.1883V0.359993H46.5563V8.99999Z" fill="black"/>
<path d="M57.0551 9.17999C59.0351 9.17999 60.4271 8.12399 60.9791 6.44399L59.3351 5.98799C59.0111 7.03199 58.2551 7.64399 57.0551 7.64399C55.4111 7.64399 54.5831 6.47999 54.5831 4.67999C54.5831 2.87999 55.4111 1.71599 57.0551 1.71599C58.2551 1.71599 59.0111 2.32799 59.3351 3.37199L60.9791 2.91599C60.4271 1.23599 59.0351 0.179993 57.0551 0.179993C54.4631 0.179993 52.8671 1.99199 52.8671 4.67999C52.8671 7.36799 54.4631 9.17999 57.0551 9.17999Z" fill="black"/>
<path d="M4.04406 25.18C5.96406 25.18 7.24806 23.896 7.24806 21.976V19.384C7.24806 17.464 5.96406 16.18 4.04406 16.18C2.12406 16.18 0.840059 17.464 0.840059 19.384V21.976C0.840059 23.896 2.12406 25.18 4.04406 25.18ZM2.50806 22.096V19.252C2.50806 18.388 3.18006 17.716 4.04406 17.716C4.90806 17.716 5.58006 18.388 5.58006 19.252V22.096C5.58006 22.96 4.90806 23.632 4.04406 23.632C3.18006 23.632 2.50806 22.96 2.50806 22.096Z" fill="black"/>
<path d="M12.286 25H13.918V22.072H15.934C16.09 22.072 16.426 22.06 16.654 22.024C18.19 21.784 18.886 20.668 18.886 19.216C18.886 17.764 18.202 16.648 16.654 16.408C16.426 16.372 16.102 16.36 15.934 16.36H12.286V25ZM13.918 20.548V17.884H15.862C16.03 17.884 16.246 17.896 16.414 17.944C17.074 18.124 17.242 18.748 17.242 19.216C17.242 19.684 17.074 20.308 16.414 20.488C16.246 20.536 16.03 20.548 15.862 20.548H13.918Z" fill="black"/>
<path d="M23.4507 17.884H30.5787V16.36H23.4507V17.884ZM23.4507 25H30.5787V23.476H23.4507V25ZM23.4507 21.436H30.5787V19.912H23.4507V21.436Z" fill="black"/>
<path d="M35.6232 25H37.2552V22.072H39.0732L40.4952 25H42.3432L40.7832 21.796C41.7672 21.346 42.2232 20.392 42.2232 19.216C42.2232 17.764 41.5392 16.648 39.9912 16.408C39.7632 16.372 39.4392 16.36 39.2712 16.36H35.6232V25ZM37.2552 20.548V17.884H39.1992C39.3672 17.884 39.5832 17.896 39.7512 17.944C40.4112 18.124 40.5792 18.748 40.5792 19.216C40.5792 19.684 40.4112 20.308 39.7512 20.488C39.5832 20.536 39.3672 20.548 39.1992 20.548H37.2552Z" fill="black"/>
<path d="M48.8822 16.36L46.2422 25H47.9222L50.0822 17.896L52.2782 25H53.9582L51.3182 16.36H48.8822Z" fill="black"/>
<path d="M59.5112 25H61.1432V17.884H63.8672V16.36H56.7872V17.884H59.5112V25Z" fill="black"/>
<path d="M71.3955 25.18C73.3155 25.18 74.5995 23.896 74.5995 21.976V19.384C74.5995 17.464 73.3155 16.18 71.3955 16.18C69.4755 16.18 68.1915 17.464 68.1915 19.384V21.976C68.1915 23.896 69.4755 25.18 71.3955 25.18ZM69.8595 22.096V19.252C69.8595 18.388 70.5315 17.716 71.3955 17.716C72.2595 17.716 72.9315 18.388 72.9315 19.252V22.096C72.9315 22.96 72.2595 23.632 71.3955 23.632C70.5315 23.632 69.8595 22.96 69.8595 22.096Z" fill="black"/>
<path d="M85.9974 25V16.36H82.3494C82.1814 16.36 81.8574 16.372 81.6294 16.408C80.0814 16.648 79.3974 17.764 79.3974 19.216C79.3974 20.392 79.8534 21.346 80.8374 21.796L79.2774 25H81.1254L82.5474 22.072H84.3654V25H85.9974ZM81.0414 19.216C81.0414 18.748 81.2094 18.124 81.8694 17.944C82.0374 17.896 82.2534 17.884 82.4214 17.884H84.3654V20.548H82.4214C82.2534 20.548 82.0374 20.536 81.8694 20.488C81.2094 20.308 81.0414 19.684 81.0414 19.216Z" fill="black"/>
</svg>
